<?xml version="1.0" encoding="UTF-8" standalone="no"?>
<svg
   id="svg"
   version="1.1"
   width="385.33301"
   height="86.334"
   viewBox="0 0 385.33301 86.334"
   xmlns="http://www.w3.org/2000/svg"
   xmlns:svg="http://www.w3.org/2000/svg">
  <defs
     id="defs11" />
  <g
     id="svgg">
    <g
       id="g345"
       transform="translate(-7.5,-6.833)">
      <g
         id="g400">
        <path
           id="path0"
           d="m 7.5,49.833 v 43 h 96.167 96.166 v -43 -43 H 103.667 7.5 v 43 M 32.461,18.375 c 0.092,0.115 0.216,0.546 0.276,0.958 0.059,0.413 0.18,1.219 0.268,1.792 0.089,0.573 0.24,1.548 0.335,2.167 0.095,0.618 0.242,1.537 0.327,2.041 0.084,0.504 0.231,1.423 0.327,2.042 0.095,0.619 0.246,1.594 0.336,2.167 0.09,0.573 0.354,2.316 0.587,3.875 0.232,1.558 0.493,3.245 0.579,3.75 0.087,0.504 0.236,1.423 0.331,2.041 0.172,1.118 0.369,2.385 0.692,4.459 0.093,0.595 0.234,1.458 0.313,1.916 0.079,0.459 0.238,1.452 0.353,2.209 0.245,1.619 0.394,1.731 0.548,0.417 0.062,-0.527 0.375,-2.571 0.696,-4.542 0.321,-1.971 0.807,-4.971 1.08,-6.667 0.273,-1.696 0.57,-3.515 0.66,-4.042 0.301,-1.754 0.483,-2.863 0.664,-4.041 0.099,-0.642 0.252,-1.598 0.34,-2.125 0.628,-3.755 0.763,-4.587 0.994,-6.125 0.104,-0.688 0.262,-1.532 0.351,-1.877 l 0.163,-0.627 7.285,0.044 7.284,0.043 0.083,27.333 c 0.046,15.034 0.132,27.221 0.19,27.084 0.059,-0.138 0.193,-0.888 0.3,-1.667 0.106,-0.779 0.264,-1.885 0.352,-2.458 0.332,-2.179 0.51,-3.322 0.655,-4.209 0.082,-0.504 0.232,-1.479 0.332,-2.166 0.101,-0.688 0.255,-1.719 0.344,-2.292 0.088,-0.573 0.236,-1.529 0.327,-2.125 0.092,-0.596 0.242,-1.571 0.334,-2.167 0.165,-1.075 0.332,-2.179 0.666,-4.416 0.386,-2.578 0.507,-3.378 0.665,-4.375 0.09,-0.573 0.354,-2.354 0.585,-3.959 0.232,-1.604 0.495,-3.366 0.585,-3.916 0.09,-0.55 0.282,-1.825 0.428,-2.834 0.146,-1.008 0.328,-2.246 0.406,-2.75 0.077,-0.504 0.227,-1.479 0.331,-2.166 0.105,-0.688 0.261,-1.7 0.347,-2.25 0.086,-0.55 0.229,-1.525 0.318,-2.167 0.089,-0.642 0.316,-2.179 0.504,-3.417 0.188,-1.237 0.425,-2.812 0.525,-3.5 0.101,-0.687 0.258,-1.343 0.349,-1.458 0.184,-0.233 14.876,-0.311 15.228,-0.081 0.103,0.068 0.315,0.985 0.471,2.039 0.157,1.054 0.354,2.367 0.44,2.917 0.085,0.55 0.232,1.525 0.325,2.167 0.167,1.138 0.337,2.26 0.665,4.375 0.089,0.573 0.237,1.529 0.328,2.125 0.092,0.595 0.242,1.57 0.334,2.166 0.091,0.596 0.235,1.552 0.32,2.125 0.154,1.047 0.414,2.754 0.68,4.459 0.078,0.504 0.228,1.479 0.333,2.166 0.105,0.688 0.255,1.663 0.333,2.167 0.079,0.504 0.223,1.442 0.32,2.083 0.097,0.642 0.33,2.179 0.518,3.417 0.187,1.237 0.532,3.525 0.765,5.083 0.234,1.559 0.494,3.284 0.579,3.834 0.085,0.55 0.228,1.525 0.318,2.166 0.09,0.642 0.245,1.692 0.344,2.334 0.394,2.556 0.472,3.068 0.733,4.833 0.148,1.008 0.299,1.908 0.334,2 0.034,0.092 0.079,-9.958 0.098,-22.333 0.019,-12.375 0.081,-24.225 0.138,-26.334 l 0.103,-3.833 7.334,0.006 c 8.193,0.007 8.366,0.026 11.522,1.313 2.876,1.173 6.116,3.84 7.965,6.557 1.108,1.628 1.086,2.017 0.247,-4.543 -0.082,-0.641 -0.198,-1.674 -0.258,-2.293 l -0.108,-1.128 5.898,0.044 5.899,0.044 0.114,0.667 c 0.063,0.366 0.199,1.304 0.302,2.083 0.103,0.779 0.262,1.942 0.352,2.583 0.091,0.642 0.231,1.655 0.313,2.25 0.081,0.596 0.23,1.684 0.331,2.417 0.392,2.838 0.489,3.541 0.654,4.75 0.094,0.688 0.25,1.813 0.346,2.5 0.354,2.531 0.83,5.985 1.171,8.5 0.193,1.421 0.493,3.596 0.665,4.833 0.173,1.238 0.405,3.038 0.516,4 0.259,2.26 0.376,2.345 0.631,0.46 0.116,-0.849 0.277,-1.993 0.36,-2.543 0.203,-1.348 0.439,-3.04 0.661,-4.75 0.102,-0.779 0.252,-1.867 0.335,-2.417 0.083,-0.55 0.231,-1.6 0.328,-2.333 0.097,-0.733 0.36,-2.683 0.585,-4.333 0.224,-1.65 0.565,-4.163 0.757,-5.584 0.192,-1.421 0.495,-3.633 0.673,-4.916 0.179,-1.284 0.405,-2.934 0.502,-3.667 0.098,-0.733 0.248,-1.74 0.333,-2.236 0.086,-0.497 0.156,-1.138 0.156,-1.425 0,-0.287 0.09,-0.612 0.2,-0.722 0.29,-0.29 31.976,-0.29 32.266,0 0.339,0.338 0.281,11.029 -0.062,11.371 -0.226,0.226 -0.93,0.262 -5.166,0.262 H 160.5 v 6.816 c 0,6.174 0.026,6.825 0.274,6.92 0.151,0.058 2.413,0.1 5.026,0.092 3.742,-0.011 4.781,0.033 4.89,0.204 0.194,0.306 0.176,10.992 -0.02,11.301 -0.132,0.21 -0.953,0.264 -5.122,0.334 l -4.965,0.083 -0.043,6.958 -0.044,6.959 h 4.969 c 3.642,0 5.022,0.053 5.168,0.2 0.287,0.286 0.287,10.98 0,11.266 -0.345,0.346 -21.565,0.283 -21.699,-0.063 -0.055,-0.145 -0.108,-12.314 -0.118,-27.042 -0.01,-16.754 -0.075,-26.56 -0.171,-26.195 -0.085,0.321 -0.224,1.034 -0.309,1.584 -0.085,0.55 -0.236,1.487 -0.336,2.083 -0.1,0.596 -0.25,1.533 -0.333,2.083 -0.084,0.55 -0.231,1.469 -0.326,2.042 -0.096,0.573 -0.253,1.51 -0.348,2.083 -0.096,0.573 -0.243,1.492 -0.326,2.042 -0.158,1.037 -0.277,1.79 -0.819,5.167 -0.176,1.1 -0.591,3.725 -0.921,5.833 -0.984,6.277 -1.092,6.958 -1.257,7.917 -0.086,0.504 -0.233,1.404 -0.325,2 -0.093,0.595 -0.318,2.021 -0.5,3.166 -0.525,3.291 -0.804,5.05 -1.271,8 -0.239,1.513 -0.579,3.65 -0.755,4.75 -0.177,1.1 -0.397,2.52 -0.49,3.154 -0.093,0.635 -0.252,1.253 -0.353,1.375 -0.261,0.314 -13.186,0.327 -13.433,0.013 -0.135,-0.172 -0.661,-3.055 -1.56,-8.542 -0.075,-0.458 -0.214,-1.302 -0.31,-1.875 -0.095,-0.573 -0.244,-1.473 -0.331,-2 -0.087,-0.527 -0.241,-1.408 -0.342,-1.958 -0.101,-0.55 -0.257,-1.45 -0.348,-2 -0.09,-0.55 -0.236,-1.431 -0.325,-1.958 -0.088,-0.527 -0.231,-1.39 -0.318,-1.917 -0.087,-0.527 -0.316,-1.858 -0.509,-2.958 -0.193,-1.1 -0.418,-2.413 -0.501,-2.917 -0.082,-0.504 -0.49,-2.96 -0.907,-5.457 -0.417,-2.497 -0.759,-4.691 -0.759,-4.875 0,-0.184 -0.075,-0.335 -0.166,-0.335 -0.092,0 -0.167,0.193 -0.167,0.429 0,2.702 -2.44,7.744 -5.111,10.561 l -1.528,1.612 1.001,3.408 c 2.157,7.349 2.669,9.095 2.83,9.657 0.436,1.519 1.844,6.297 1.966,6.667 0.075,0.229 0.219,0.716 0.32,1.083 0.101,0.367 0.335,1.148 0.52,1.736 0.184,0.588 0.335,1.244 0.335,1.458 v 0.389 h -5.653 -5.654 l -0.171,-0.541 c -0.094,-0.298 -0.405,-1.442 -0.692,-2.542 -0.854,-3.273 -1.503,-5.734 -2.33,-8.833 -0.183,-0.688 -0.483,-1.813 -0.666,-2.5 -0.896,-3.359 -1.043,-3.916 -1.32,-5 l -0.299,-1.167 -1.046,0.031 c -0.576,0.016 -1.114,0.097 -1.196,0.18 -0.085,0.085 -0.146,4.387 -0.142,9.991 0.004,5.412 -0.039,9.963 -0.096,10.111 -0.138,0.36 -21.574,0.421 -21.861,0.062 C 79.116,81.01 78.998,80.504 78.946,80 78.851,79.083 78.653,77.611 78.33,75.417 78.235,74.775 78.112,73.8 78.057,73.25 77.883,71.531 78.251,71.655 73.456,71.705 L 69.26,71.75 69.063,73 c -0.108,0.688 -0.4,2.75 -0.649,4.583 -0.249,1.834 -0.528,3.427 -0.62,3.542 C 67.509,81.478 45.737,81.424 45.601,81.07 45.546,80.925 45.494,74.718 45.486,67.278 45.474,55.215 45.447,53.858 45.235,54.75 c -0.185,0.784 -1.588,9.027 -2.759,16.208 -0.078,0.482 -0.207,1.269 -0.285,1.75 -0.8,4.907 -1.419,8.246 -1.56,8.417 -0.201,0.243 -6.051,0.305 -6.199,0.066 -0.085,-0.137 -0.456,-2.084 -0.768,-4.024 -0.081,-0.505 -0.23,-1.367 -0.331,-1.917 -0.1,-0.55 -0.254,-1.431 -0.341,-1.958 -0.087,-0.527 -0.23,-1.39 -0.317,-1.917 -0.087,-0.527 -0.241,-1.408 -0.342,-1.958 -0.1,-0.55 -0.25,-1.413 -0.333,-1.917 -0.083,-0.504 -0.233,-1.367 -0.334,-1.917 -0.101,-0.55 -0.249,-1.375 -0.328,-1.833 -0.08,-0.458 -0.226,-1.302 -0.325,-1.875 -0.099,-0.573 -0.251,-1.473 -0.338,-2 -0.395,-2.395 -0.865,-5.009 -0.997,-5.542 -0.085,-0.344 -0.151,4.979 -0.161,13.009 -0.013,10.329 -0.065,13.639 -0.217,13.791 -0.286,0.287 -11.147,0.287 -11.433,0 -0.299,-0.298 -0.291,-62.735 0.008,-62.856 0.505,-0.204 14.418,-0.11 14.586,0.098 M 184,43.917 v 25.75 h 4.833 c 4.491,0 4.834,0.02 4.836,0.291 0.037,4.353 -0.018,11.099 -0.091,11.217 -0.155,0.251 -20.793,0.21 -21.045,-0.042 -0.218,-0.218 -0.306,-62.637 -0.089,-62.855 0.062,-0.061 2.687,-0.111 5.834,-0.111 H 184 v 25.75 m -82.833,-4.312 v 9.938 l 0.708,-0.108 c 8.794,-1.331 8.561,-19.732 -0.25,-19.767 l -0.458,-10e-4 v 9.938 M 73.454,36.889 c -0.066,0.168 -0.121,0.571 -0.121,0.897 0,0.326 -0.071,1.051 -0.159,1.611 -0.088,0.561 -0.241,1.77 -0.34,2.686 -0.099,0.917 -0.249,2.23 -0.333,2.917 -0.186,1.528 -0.334,2.809 -1.085,9.417 -0.323,2.841 -0.632,5.56 -0.687,6.041 l -0.101,0.875 h 3.038 3.037 l -0.09,-0.375 C 76.564,60.752 76.482,60.246 76.431,59.833 76.27,58.537 75.696,53.77 75.085,48.667 74.762,45.962 74.428,43.188 74.344,42.5 74.259,41.813 74.105,40.5 74.001,39.583 73.722,37.121 73.6,36.52 73.454,36.889"
           stroke="none"
           fill="#ec2c24"
           fill-rule="evenodd" />
        <path
           id="path1"
           d="M 18.113,18.443 C 18.051,18.505 18,32.606 18,49.778 V 81 h 5.582 5.583 l 0.042,-14.542 c 0.041,-13.692 0.116,-15.888 0.477,-13.924 0.164,0.889 0.6,3.42 1.989,11.549 0.72,4.217 1.581,9.242 1.912,11.167 0.332,1.925 0.667,3.929 0.746,4.452 0.204,1.368 0.027,1.298 3.259,1.298 2.879,0 2.904,-0.003 2.974,-0.375 0.039,-0.206 0.155,-0.9 0.259,-1.542 0.103,-0.641 0.256,-1.541 0.341,-2 0.085,-0.458 0.232,-1.302 0.328,-1.875 0.096,-0.573 0.253,-1.51 0.349,-2.083 0.096,-0.573 0.242,-1.417 0.326,-1.875 0.141,-0.779 0.247,-1.401 0.666,-3.917 0.092,-0.55 0.242,-1.45 0.334,-2 0.259,-1.558 0.512,-3.013 0.665,-3.833 0.077,-0.413 0.227,-1.312 0.335,-2 0.107,-0.687 0.26,-1.587 0.34,-2 0.08,-0.413 0.303,-1.725 0.496,-2.917 0.742,-4.585 0.795,-3.791 0.814,12.292 L 45.833,81 H 56.726 67.62 l 0.196,-1.292 c 0.21,-1.384 0.385,-2.62 0.69,-4.875 0.106,-0.779 0.28,-1.866 0.387,-2.416 l 0.194,-1 4.375,-0.045 4.376,-0.044 0.156,0.378 c 0.085,0.207 0.348,1.84 0.583,3.627 0.235,1.788 0.512,3.794 0.615,4.459 L 79.379,81 h 10.727 10.727 l 0.003,-9.958 c 0.003,-11.013 -0.075,-10.307 1.154,-10.54 1.907,-0.362 1.467,-1.246 3.767,7.581 0.979,3.759 1.89,7.246 2.024,7.75 0.856,3.222 1.096,4.139 1.2,4.584 l 0.116,0.5 5.547,0.044 c 5.299,0.042 5.542,0.03 5.45,-0.26 -0.152,-0.48 -1.944,-6.564 -2.096,-7.118 -0.075,-0.275 -0.375,-1.287 -0.665,-2.25 -0.588,-1.952 -0.743,-2.484 -0.97,-3.333 -0.086,-0.321 -0.267,-0.921 -0.403,-1.333 -0.135,-0.413 -0.342,-1.088 -0.46,-1.5 -0.118,-0.413 -0.325,-1.088 -0.46,-1.5 -0.136,-0.413 -0.312,-0.994 -0.393,-1.292 -0.146,-0.537 -0.367,-1.328 -0.641,-2.292 -0.079,-0.275 -0.328,-1.118 -0.555,-1.873 l -0.411,-1.374 1.159,-1.126 c 3.391,-3.293 4.946,-6.681 5.743,-12.506 0.102,-0.746 0.32,-0.547 0.457,0.416 0.15,1.062 0.038,0.387 2.922,17.547 2.493,14.828 2.695,16.038 2.996,17.958 0.083,0.527 0.204,1.165 0.268,1.417 L 126.703,81 h 6.558 6.557 l 0.091,-0.542 c 0.05,-0.298 0.242,-1.516 0.426,-2.708 0.184,-1.192 0.407,-2.579 0.494,-3.083 0.087,-0.505 0.239,-1.442 0.338,-2.084 0.098,-0.641 0.248,-1.579 0.333,-2.083 0.085,-0.504 0.235,-1.442 0.333,-2.083 0.099,-0.642 0.249,-1.58 0.334,-2.084 0.085,-0.504 0.237,-1.441 0.339,-2.083 0.234,-1.47 0.45,-2.814 0.65,-4.042 0.086,-0.527 0.243,-1.52 0.348,-2.208 0.105,-0.687 0.253,-1.587 0.329,-2 0.076,-0.413 0.225,-1.312 0.33,-2 0.105,-0.687 0.262,-1.681 0.347,-2.208 0.285,-1.747 0.673,-4.164 1.156,-7.209 0.189,-1.191 0.418,-2.616 0.508,-3.166 0.091,-0.55 0.688,-4.326 1.328,-8.39 1.178,-7.484 1.286,-8.016 1.516,-7.433 0.069,0.178 0.13,12.698 0.136,27.823 l 0.009,27.5 h 10.627 10.627 l 0.044,-5.456 0.044,-5.456 -5.044,-0.044 -5.044,-0.044 -0.044,-7.29 -0.043,-7.289 5.043,-0.044 5.044,-0.044 v -5.583 -5.584 l -5.042,-0.044 -5.042,-0.044 v -7.162 -7.161 l 5.042,-0.045 5.042,-0.044 V 24 18.417 l -15.584,-0.046 c -17.711,-0.052 -16.28,-0.132 -16.411,0.921 -0.053,0.435 -0.176,1.354 -0.271,2.041 -0.289,2.077 -0.492,3.526 -0.653,4.667 -0.084,0.596 -0.233,1.683 -0.331,2.417 -0.099,0.733 -0.249,1.821 -0.334,2.416 -0.178,1.248 -0.586,4.198 -1.004,7.25 -0.1,0.734 -0.249,1.784 -0.331,2.334 -0.082,0.55 -0.227,1.6 -0.323,2.333 -0.096,0.733 -0.323,2.383 -0.504,3.667 -0.181,1.283 -0.519,3.758 -0.75,5.5 -0.746,5.627 -0.75,5.622 -1.753,-2.084 -0.101,-0.779 -0.252,-1.866 -0.335,-2.416 -0.083,-0.55 -0.233,-1.638 -0.334,-2.417 -0.102,-0.779 -0.255,-1.904 -0.341,-2.5 -0.087,-0.596 -0.758,-5.583 -1.493,-11.083 -1.347,-10.091 -1.615,-12.025 -1.759,-12.709 l -0.079,-0.375 h -5.57 c -3.064,0 -5.606,0.058 -5.65,0.128 -0.077,0.125 0.023,1.131 0.4,4.039 0.101,0.779 0.249,1.942 0.329,2.583 0.465,3.728 0.48,3.7 -0.836,1.63 -2.029,-3.192 -5.723,-6.159 -9.083,-7.297 -2.855,-0.966 -4.546,-1.119 -11.667,-1.054 l -6,0.055 -0.042,27.375 C 89.67,70.593 89.606,74.593 89.28,72.625 89.231,72.327 89.153,71.896 89.107,71.667 89.029,71.277 88.936,70.67 88.49,67.625 88.392,66.96 88.247,66.004 88.167,65.5 88.086,64.996 87.936,64.021 87.833,63.333 87.73,62.646 87.58,61.671 87.5,61.167 87.42,60.663 87.27,59.688 87.167,59 87.064,58.313 86.913,57.337 86.833,56.833 86.753,56.329 86.605,55.354 86.504,54.667 86.298,53.252 86.077,51.816 85.833,50.292 85.69,49.399 82.51,28.171 81.99,24.642 81.891,23.968 81.739,22.967 81.653,22.417 81.568,21.867 81.425,20.871 81.336,20.204 81.057,18.118 81.94,18.323 73.458,18.373 L 66.097,18.417 65.971,19 c -0.069,0.321 -0.206,1.146 -0.304,1.833 -0.097,0.688 -0.248,1.7 -0.334,2.25 -0.086,0.55 -0.236,1.525 -0.333,2.167 -0.097,0.642 -0.25,1.635 -0.339,2.208 -0.33,2.129 -0.498,3.236 -0.648,4.25 -0.084,0.573 -0.24,1.605 -0.346,2.292 -0.107,0.688 -0.263,1.719 -0.347,2.292 -0.084,0.573 -0.226,1.51 -0.315,2.083 -0.265,1.71 -0.496,3.228 -0.658,4.333 -0.153,1.037 -0.408,2.71 -0.68,4.459 -0.079,0.504 -0.296,1.966 -0.483,3.25 -0.188,1.283 -0.94,6.308 -1.672,11.166 -0.733,4.859 -1.451,9.696 -1.596,10.75 -0.728,5.273 -0.755,4.333 -0.751,-25.701 0.004,-25.53 -0.02,-28.105 -0.261,-28.197 -0.558,-0.214 -13.854,-0.113 -14.027,0.107 -0.09,0.114 -0.778,4.071 -1.528,8.791 -0.75,4.721 -1.587,9.971 -1.859,11.667 -0.272,1.696 -0.572,3.571 -0.666,4.167 -0.093,0.595 -0.242,1.514 -0.33,2.041 -0.089,0.527 -0.236,1.409 -0.327,1.959 -0.506,3.036 -0.709,3.644 -0.901,2.709 C 37.182,49.47 36.804,47.084 36.308,43.833 36.217,43.237 36.079,42.337 36,41.833 35.921,41.329 35.771,40.354 35.667,39.667 35.562,38.979 35.409,38.004 35.327,37.5 35.246,36.996 35.096,36.058 34.994,35.417 34.893,34.775 34.737,33.8 34.647,33.25 34.48,32.216 34.296,31.036 34.012,29.167 33.922,28.571 33.766,27.596 33.667,27 33.488,25.933 33.337,24.968 33.013,22.833 32.73,20.974 32.499,19.606 32.365,19 l -0.129,-0.583 -7.005,-0.044 c -3.853,-0.024 -7.056,0.008 -7.118,0.07 M 172.78,18.442 c -0.062,0.063 -0.113,14.164 -0.113,31.336 V 81 H 183.083 193.5 V 75.5 70 h -4.646 c -3.695,0 -4.685,-0.046 -4.833,-0.225 -0.135,-0.163 -0.198,-7.232 -0.229,-25.791 l -0.042,-25.567 -5.428,-0.044 c -2.986,-0.024 -5.48,0.007 -5.542,0.069 m -69.689,11.314 c 7.158,1.986 7.577,16.078 0.576,19.362 -1.401,0.657 -2.441,0.804 -2.669,0.377 -0.236,-0.439 -0.222,-19.409 0.014,-19.85 0.193,-0.362 0.414,-0.35 2.079,0.111 m -29.088,7.577 c 0.08,0.688 0.224,1.907 0.321,2.709 0.097,0.802 0.255,2.114 0.352,2.916 0.097,0.802 0.244,2.021 0.327,2.709 0.083,0.687 0.231,1.887 0.33,2.666 0.098,0.779 0.249,2.017 0.334,2.75 0.085,0.734 0.228,1.934 0.318,2.667 0.678,5.544 0.862,7.307 0.783,7.513 -0.111,0.29 -6.175,0.356 -6.352,0.069 -0.057,-0.092 -0.026,-0.711 0.069,-1.375 0.096,-0.664 0.251,-1.863 0.344,-2.665 0.094,-0.802 0.246,-2.096 0.338,-2.875 0.091,-0.78 0.241,-2.055 0.333,-2.834 0.092,-0.779 0.241,-2.035 0.332,-2.791 0.091,-0.757 0.242,-2.05 0.336,-2.875 0.978,-8.601 1.16,-10.087 1.277,-10.417 0.143,-0.404 0.396,0.427 0.558,1.833"
           stroke="none"
           fill="#fbf9f9"
           fill-rule="evenodd" />
        <path
           id="path2"
           d="m 17.875,18.277 c -0.299,0.121 -0.307,62.558 -0.008,62.856 0.286,0.287 11.147,0.287 11.433,0 0.152,-0.152 0.204,-3.462 0.217,-13.791 0.01,-8.03 0.076,-13.353 0.161,-13.009 0.132,0.533 0.602,3.147 0.997,5.542 0.087,0.527 0.239,1.427 0.338,2 0.099,0.573 0.245,1.417 0.325,1.875 0.079,0.458 0.227,1.283 0.328,1.833 0.101,0.55 0.251,1.413 0.334,1.917 0.083,0.504 0.233,1.367 0.333,1.917 0.101,0.55 0.255,1.431 0.342,1.958 0.087,0.527 0.23,1.39 0.317,1.917 0.087,0.527 0.241,1.408 0.341,1.958 0.101,0.55 0.25,1.412 0.331,1.917 0.312,1.94 0.683,3.887 0.768,4.024 0.148,0.239 5.998,0.177 6.199,-0.066 0.141,-0.171 0.76,-3.51 1.56,-8.417 0.078,-0.481 0.207,-1.268 0.285,-1.75 1.171,-7.181 2.574,-15.424 2.759,-16.208 0.212,-0.892 0.239,0.465 0.251,12.528 0.008,7.44 0.06,13.647 0.115,13.792 0.136,0.354 21.908,0.408 22.193,0.055 0.092,-0.115 0.371,-1.708 0.62,-3.542 0.249,-1.833 0.541,-3.895 0.649,-4.583 l 0.197,-1.25 4.196,-0.045 c 4.795,-0.05 4.427,-0.174 4.601,1.545 0.055,0.55 0.178,1.525 0.273,2.167 0.323,2.194 0.521,3.666 0.616,4.583 0.052,0.504 0.17,1.01 0.261,1.125 0.287,0.359 21.723,0.298 21.861,-0.062 0.057,-0.148 0.1,-4.699 0.096,-10.111 -0.004,-5.604 0.057,-9.906 0.142,-9.991 0.082,-0.083 0.62,-0.164 1.196,-0.18 l 1.046,-0.031 0.299,1.167 c 0.277,1.084 0.424,1.641 1.32,5 0.183,0.687 0.483,1.812 0.666,2.5 0.827,3.099 1.476,5.56 2.33,8.833 0.287,1.1 0.598,2.244 0.692,2.542 l 0.171,0.541 h 5.654 5.653 v -0.389 c 0,-0.214 -0.151,-0.87 -0.335,-1.458 -0.185,-0.588 -0.419,-1.369 -0.52,-1.736 -0.101,-0.367 -0.245,-0.854 -0.32,-1.083 -0.122,-0.37 -1.53,-5.148 -1.966,-6.667 -0.161,-0.562 -0.673,-2.308 -2.83,-9.657 l -1.001,-3.408 1.528,-1.612 C 117.56,52.506 120,47.464 120,44.762 c 0,-0.236 0.075,-0.429 0.167,-0.429 0.091,0 0.166,0.151 0.166,0.335 0,0.184 0.342,2.378 0.759,4.875 0.417,2.497 0.825,4.953 0.907,5.457 0.083,0.504 0.308,1.817 0.501,2.917 0.193,1.1 0.422,2.431 0.509,2.958 0.087,0.527 0.23,1.39 0.318,1.917 0.089,0.527 0.235,1.408 0.325,1.958 0.091,0.55 0.247,1.45 0.348,2 0.101,0.55 0.255,1.431 0.342,1.958 0.087,0.527 0.236,1.427 0.331,2 0.096,0.573 0.235,1.417 0.31,1.875 0.899,5.487 1.425,8.37 1.56,8.542 0.247,0.314 13.172,0.301 13.433,-0.013 0.101,-0.122 0.26,-0.74 0.353,-1.375 0.093,-0.634 0.313,-2.054 0.49,-3.154 0.176,-1.1 0.516,-3.237 0.755,-4.75 0.467,-2.95 0.746,-4.709 1.271,-8 0.182,-1.145 0.407,-2.571 0.5,-3.166 0.092,-0.596 0.239,-1.496 0.325,-2 0.165,-0.959 0.273,-1.64 1.257,-7.917 0.33,-2.108 0.745,-4.733 0.921,-5.833 0.542,-3.377 0.661,-4.13 0.819,-5.167 0.083,-0.55 0.23,-1.469 0.326,-2.042 0.095,-0.573 0.252,-1.51 0.348,-2.083 0.095,-0.573 0.242,-1.492 0.326,-2.042 0.083,-0.55 0.233,-1.487 0.333,-2.083 0.1,-0.596 0.251,-1.533 0.336,-2.083 0.085,-0.55 0.224,-1.263 0.309,-1.584 0.096,-0.365 0.161,9.441 0.171,26.195 0.01,14.728 0.063,26.897 0.118,27.042 0.134,0.346 21.354,0.409 21.699,0.063 0.287,-0.286 0.287,-10.98 0,-11.266 -0.146,-0.147 -1.526,-0.2 -5.168,-0.2 h -4.969 l 0.044,-6.959 0.043,-6.958 4.965,-0.083 c 4.169,-0.07 4.99,-0.124 5.122,-0.334 0.196,-0.309 0.214,-10.995 0.02,-11.301 -0.109,-0.171 -1.148,-0.215 -4.89,-0.204 -2.613,0.008 -4.875,-0.034 -5.026,-0.092 -0.248,-0.095 -0.274,-0.746 -0.274,-6.92 V 30 h 4.905 c 4.236,0 4.94,-0.036 5.166,-0.262 0.343,-0.342 0.401,-11.033 0.062,-11.371 -0.29,-0.29 -31.976,-0.29 -32.266,0 -0.11,0.11 -0.2,0.435 -0.2,0.722 0,0.287 -0.07,0.928 -0.156,1.425 -0.085,0.496 -0.235,1.503 -0.333,2.236 -0.097,0.733 -0.323,2.383 -0.502,3.667 -0.178,1.283 -0.481,3.495 -0.673,4.916 -0.192,1.421 -0.533,3.934 -0.757,5.584 -0.225,1.65 -0.488,3.6 -0.585,4.333 -0.097,0.733 -0.245,1.783 -0.328,2.333 -0.083,0.55 -0.233,1.638 -0.335,2.417 -0.222,1.71 -0.458,3.402 -0.661,4.75 -0.083,0.55 -0.244,1.694 -0.36,2.543 -0.255,1.885 -0.372,1.8 -0.631,-0.46 -0.111,-0.962 -0.343,-2.762 -0.516,-4 -0.172,-1.237 -0.472,-3.412 -0.665,-4.833 -0.341,-2.515 -0.817,-5.969 -1.171,-8.5 -0.096,-0.687 -0.252,-1.812 -0.346,-2.5 -0.165,-1.209 -0.262,-1.912 -0.654,-4.75 -0.101,-0.733 -0.25,-1.821 -0.331,-2.417 -0.082,-0.595 -0.222,-1.608 -0.313,-2.25 -0.09,-0.641 -0.249,-1.804 -0.352,-2.583 -0.103,-0.779 -0.239,-1.717 -0.302,-2.083 l -0.114,-0.667 -5.899,-0.044 -5.898,-0.044 0.108,1.128 c 0.06,0.619 0.176,1.652 0.258,2.293 0.839,6.56 0.861,6.171 -0.247,4.543 -1.849,-2.717 -5.089,-5.384 -7.965,-6.557 -3.156,-1.287 -3.329,-1.306 -11.522,-1.313 L 89.583,18.25 89.48,22.083 C 89.423,24.192 89.361,36.042 89.342,48.417 89.323,60.792 89.278,70.842 89.244,70.75 89.209,70.658 89.058,69.758 88.91,68.75 88.649,66.985 88.571,66.473 88.177,63.917 88.078,63.275 87.923,62.225 87.833,61.583 87.743,60.942 87.6,59.967 87.515,59.417 87.43,58.867 87.17,57.142 86.936,55.583 86.703,54.025 86.358,51.737 86.171,50.5 85.983,49.262 85.75,47.725 85.653,47.083 85.556,46.442 85.412,45.504 85.333,45 85.255,44.496 85.105,43.521 85,42.833 84.895,42.146 84.745,41.171 84.667,40.667 84.401,38.962 84.141,37.255 83.987,36.208 83.902,35.635 83.758,34.679 83.667,34.083 83.575,33.487 83.425,32.512 83.333,31.917 83.242,31.321 83.094,30.365 83.005,29.792 82.677,27.677 82.507,26.555 82.34,25.417 82.247,24.775 82.1,23.8 82.015,23.25 81.929,22.7 81.732,21.387 81.575,20.333 81.419,19.279 81.207,18.362 81.104,18.294 80.752,18.064 66.06,18.142 65.876,18.375 c -0.091,0.115 -0.248,0.771 -0.349,1.458 -0.1,0.688 -0.337,2.263 -0.525,3.5 -0.188,1.238 -0.415,2.775 -0.504,3.417 -0.089,0.642 -0.232,1.617 -0.318,2.167 -0.086,0.55 -0.242,1.562 -0.347,2.25 -0.104,0.687 -0.254,1.662 -0.331,2.166 -0.078,0.504 -0.26,1.742 -0.406,2.75 -0.146,1.009 -0.338,2.284 -0.428,2.834 -0.09,0.55 -0.353,2.312 -0.585,3.916 -0.231,1.605 -0.495,3.386 -0.585,3.959 -0.158,0.997 -0.279,1.797 -0.665,4.375 -0.334,2.237 -0.501,3.341 -0.666,4.416 -0.092,0.596 -0.242,1.571 -0.334,2.167 -0.091,0.596 -0.239,1.552 -0.327,2.125 -0.089,0.573 -0.243,1.604 -0.344,2.292 -0.1,0.687 -0.25,1.662 -0.332,2.166 -0.145,0.887 -0.323,2.03 -0.655,4.209 -0.088,0.573 -0.246,1.679 -0.352,2.458 -0.107,0.779 -0.241,1.529 -0.3,1.667 -0.058,0.137 -0.144,-12.05 -0.19,-27.084 L 57.25,18.25 49.966,18.207 42.681,18.163 42.518,18.79 c -0.089,0.345 -0.247,1.189 -0.351,1.877 -0.231,1.538 -0.366,2.37 -0.994,6.125 -0.088,0.527 -0.241,1.483 -0.34,2.125 -0.181,1.178 -0.363,2.287 -0.664,4.041 -0.09,0.527 -0.387,2.346 -0.66,4.042 -0.273,1.696 -0.759,4.696 -1.08,6.667 -0.321,1.971 -0.634,4.015 -0.696,4.542 -0.154,1.314 -0.303,1.202 -0.548,-0.417 -0.115,-0.757 -0.274,-1.75 -0.353,-2.209 -0.079,-0.458 -0.22,-1.321 -0.313,-1.916 -0.323,-2.074 -0.52,-3.341 -0.692,-4.459 C 35.732,38.59 35.583,37.671 35.496,37.167 35.41,36.662 35.149,34.975 34.917,33.417 34.684,31.858 34.42,30.115 34.33,29.542 34.24,28.969 34.089,27.994 33.994,27.375 33.898,26.756 33.751,25.837 33.667,25.333 33.582,24.829 33.435,23.91 33.34,23.292 33.245,22.673 33.094,21.698 33.005,21.125 32.917,20.552 32.796,19.746 32.737,19.333 32.677,18.921 32.553,18.49 32.461,18.375 32.293,18.167 18.38,18.073 17.875,18.277 m 154.569,10e-4 c -0.217,0.218 -0.129,62.637 0.089,62.855 0.252,0.252 20.89,0.293 21.045,0.042 0.073,-0.118 0.128,-6.864 0.091,-11.217 -0.002,-0.271 -0.345,-0.291 -4.836,-0.291 H 184 v -25.75 -25.75 h -5.722 c -3.147,0 -5.772,0.05 -5.834,0.111 M 32.365,19 c 0.134,0.606 0.365,1.974 0.648,3.833 0.324,2.135 0.475,3.1 0.654,4.167 0.099,0.596 0.255,1.571 0.345,2.167 0.284,1.869 0.468,3.049 0.635,4.083 0.09,0.55 0.246,1.525 0.347,2.167 0.102,0.641 0.252,1.579 0.333,2.083 0.082,0.504 0.235,1.479 0.34,2.167 0.104,0.687 0.254,1.662 0.333,2.166 0.079,0.504 0.217,1.404 0.308,2 0.496,3.251 0.874,5.637 0.958,6.043 0.192,0.935 0.395,0.327 0.901,-2.709 0.091,-0.55 0.238,-1.432 0.327,-1.959 0.088,-0.527 0.237,-1.446 0.33,-2.041 0.094,-0.596 0.394,-2.471 0.666,-4.167 0.272,-1.696 1.109,-6.946 1.859,-11.667 0.75,-4.72 1.438,-8.677 1.528,-8.791 0.173,-0.22 13.469,-0.321 14.027,-0.107 0.241,0.092 0.265,2.667 0.261,28.197 -0.004,30.034 0.023,30.974 0.751,25.701 0.145,-1.054 0.863,-5.891 1.596,-10.75 0.732,-4.858 1.484,-9.883 1.672,-11.166 0.187,-1.284 0.404,-2.746 0.483,-3.25 0.272,-1.749 0.527,-3.422 0.68,-4.459 0.162,-1.105 0.393,-2.623 0.658,-4.333 0.089,-0.573 0.231,-1.51 0.315,-2.083 0.084,-0.573 0.24,-1.604 0.347,-2.292 0.106,-0.687 0.262,-1.719 0.346,-2.292 0.15,-1.014 0.318,-2.121 0.648,-4.25 0.089,-0.573 0.242,-1.566 0.339,-2.208 0.097,-0.642 0.247,-1.617 0.333,-2.167 0.086,-0.55 0.237,-1.562 0.334,-2.25 0.098,-0.687 0.235,-1.512 0.304,-1.833 l 0.126,-0.583 7.361,-0.044 c 8.482,-0.05 7.599,-0.255 7.878,1.831 0.089,0.667 0.232,1.663 0.317,2.213 0.086,0.55 0.238,1.551 0.337,2.225 0.52,3.529 3.7,24.757 3.843,25.65 0.244,1.524 0.465,2.96 0.671,4.375 0.101,0.687 0.249,1.662 0.329,2.166 0.08,0.504 0.231,1.48 0.334,2.167 0.103,0.688 0.253,1.663 0.333,2.167 0.08,0.504 0.23,1.479 0.333,2.166 0.103,0.688 0.253,1.663 0.334,2.167 0.08,0.504 0.225,1.46 0.323,2.125 0.446,3.045 0.539,3.652 0.617,4.042 0.046,0.229 0.124,0.66 0.173,0.958 0.326,1.968 0.39,-2.032 0.428,-26.833 l 0.042,-27.375 6,-0.055 c 7.121,-0.065 8.812,0.088 11.667,1.054 3.36,1.138 7.054,4.105 9.083,7.297 1.316,2.07 1.301,2.098 0.836,-1.63 -0.08,-0.641 -0.228,-1.804 -0.329,-2.583 -0.377,-2.908 -0.477,-3.914 -0.4,-4.039 0.044,-0.07 2.586,-0.128 5.65,-0.128 h 5.57 l 0.079,0.375 c 0.144,0.684 0.412,2.618 1.759,12.709 0.735,5.5 1.406,10.487 1.493,11.083 0.086,0.596 0.239,1.721 0.341,2.5 0.101,0.779 0.251,1.867 0.334,2.417 0.083,0.55 0.234,1.637 0.335,2.416 1.003,7.706 1.007,7.711 1.753,2.084 0.231,-1.742 0.569,-4.217 0.75,-5.5 0.181,-1.284 0.408,-2.934 0.504,-3.667 0.096,-0.733 0.241,-1.783 0.323,-2.333 0.082,-0.55 0.231,-1.6 0.331,-2.334 0.418,-3.052 0.826,-6.002 1.004,-7.25 0.085,-0.595 0.235,-1.683 0.334,-2.416 0.098,-0.734 0.247,-1.821 0.331,-2.417 0.161,-1.141 0.364,-2.59 0.653,-4.667 0.095,-0.687 0.218,-1.606 0.271,-2.041 0.131,-1.053 -1.3,-0.973 16.411,-0.921 l 15.584,0.046 V 24 29.583 l -5.042,0.044 -5.042,0.045 v 7.161 7.162 l 5.042,0.044 5.042,0.044 v 5.584 5.583 l -5.044,0.044 -5.043,0.044 0.043,7.289 0.044,7.29 5.044,0.044 5.044,0.044 -0.044,5.456 -0.044,5.456 H 159.79 149.163 l -0.009,-27.5 c -0.006,-15.125 -0.067,-27.645 -0.136,-27.823 -0.23,-0.583 -0.338,-0.051 -1.516,7.433 -0.64,4.064 -1.237,7.84 -1.328,8.39 -0.09,0.55 -0.319,1.975 -0.508,3.166 -0.483,3.045 -0.871,5.462 -1.156,7.209 -0.085,0.527 -0.242,1.521 -0.347,2.208 -0.105,0.688 -0.254,1.587 -0.33,2 -0.076,0.413 -0.224,1.313 -0.329,2 -0.105,0.688 -0.262,1.681 -0.348,2.208 -0.2,1.228 -0.416,2.572 -0.65,4.042 -0.102,0.642 -0.254,1.579 -0.339,2.083 -0.085,0.504 -0.235,1.442 -0.334,2.084 -0.098,0.641 -0.248,1.579 -0.333,2.083 -0.085,0.504 -0.235,1.442 -0.333,2.083 -0.099,0.642 -0.251,1.579 -0.338,2.084 -0.087,0.504 -0.31,1.891 -0.494,3.083 -0.184,1.192 -0.376,2.41 -0.426,2.708 L 139.818,81 h -6.557 -6.558 l -0.118,-0.458 c -0.064,-0.252 -0.185,-0.89 -0.268,-1.417 -0.301,-1.92 -0.503,-3.13 -2.996,-17.958 -2.884,-17.16 -2.772,-16.485 -2.922,-17.547 -0.137,-0.963 -0.355,-1.162 -0.457,-0.416 -0.797,5.825 -2.352,9.213 -5.743,12.506 l -1.159,1.126 0.411,1.374 c 0.227,0.755 0.476,1.598 0.555,1.873 0.274,0.964 0.495,1.755 0.641,2.292 0.081,0.298 0.257,0.879 0.393,1.292 0.135,0.412 0.342,1.087 0.46,1.5 0.118,0.412 0.325,1.087 0.46,1.5 0.136,0.412 0.317,1.012 0.403,1.333 0.227,0.849 0.382,1.381 0.97,3.333 0.29,0.963 0.59,1.975 0.665,2.25 0.152,0.554 1.944,6.638 2.096,7.118 0.092,0.29 -0.151,0.302 -5.45,0.26 l -5.547,-0.044 -0.116,-0.5 c -0.104,-0.445 -0.344,-1.362 -1.2,-4.584 -0.134,-0.504 -1.045,-3.991 -2.024,-7.75 -2.3,-8.827 -1.86,-7.943 -3.767,-7.581 -1.229,0.233 -1.151,-0.473 -1.154,10.54 L 100.833,81 H 90.106 79.379 l -0.187,-1.208 c -0.103,-0.665 -0.38,-2.671 -0.615,-4.459 -0.235,-1.787 -0.498,-3.42 -0.583,-3.627 l -0.156,-0.378 -4.376,0.044 -4.375,0.045 -0.194,1 c -0.107,0.55 -0.281,1.637 -0.387,2.416 -0.305,2.255 -0.48,3.491 -0.69,4.875 L 67.62,81 H 56.726 45.833 L 45.817,66.875 C 45.798,50.792 45.745,49.998 45.003,54.583 c -0.193,1.192 -0.416,2.504 -0.496,2.917 -0.08,0.413 -0.233,1.313 -0.34,2 -0.108,0.688 -0.258,1.587 -0.335,2 -0.153,0.82 -0.406,2.275 -0.665,3.833 -0.092,0.55 -0.242,1.45 -0.334,2 -0.419,2.516 -0.525,3.138 -0.666,3.917 -0.084,0.458 -0.23,1.302 -0.326,1.875 -0.096,0.573 -0.253,1.51 -0.349,2.083 -0.096,0.573 -0.243,1.417 -0.328,1.875 -0.085,0.459 -0.238,1.359 -0.341,2 -0.104,0.642 -0.22,1.336 -0.259,1.542 C 40.494,80.997 40.469,81 37.59,81 34.358,81 34.535,81.07 34.331,79.702 34.252,79.179 33.917,77.175 33.585,75.25 33.254,73.325 32.393,68.3 31.673,64.083 30.284,55.954 29.848,53.423 29.684,52.534 29.323,50.57 29.248,52.766 29.207,66.458 L 29.165,81 H 23.582 18 V 49.778 c 0,-17.172 0.051,-31.273 0.113,-31.335 0.062,-0.062 3.265,-0.094 7.118,-0.07 l 7.005,0.044 0.129,0.583 m 151.427,24.984 c 0.031,18.559 0.094,25.628 0.229,25.791 0.148,0.179 1.138,0.225 4.833,0.225 H 193.5 V 75.5 81 H 183.083 172.667 V 49.778 c 0,-17.172 0.051,-31.273 0.113,-31.336 0.062,-0.062 2.556,-0.093 5.542,-0.069 l 5.428,0.044 0.042,25.567 m -82.78,-14.339 c -0.236,0.441 -0.25,19.411 -0.014,19.85 0.41,0.767 3.177,-0.307 4.677,-1.815 3.615,-3.633 4.073,-11.319 0.923,-15.501 -1.335,-1.773 -5.084,-3.473 -5.586,-2.534 m 1.846,0.26 c 3.587,1.089 5.294,3.895 5.439,8.941 0.168,5.85 -2.33,9.97 -6.422,10.589 l -0.708,0.108 v -9.938 -9.938 l 0.458,10e-4 c 0.252,0.001 0.807,0.108 1.233,0.237 M 73.445,35.5 c -0.117,0.33 -0.299,1.816 -1.277,10.417 -0.094,0.825 -0.245,2.118 -0.336,2.875 -0.091,0.756 -0.24,2.012 -0.332,2.791 -0.092,0.779 -0.242,2.054 -0.333,2.834 -0.092,0.779 -0.244,2.073 -0.338,2.875 -0.093,0.802 -0.248,2.001 -0.344,2.665 -0.095,0.664 -0.126,1.283 -0.069,1.375 0.177,0.287 6.241,0.221 6.352,-0.069 0.079,-0.206 -0.105,-1.969 -0.783,-7.513 -0.09,-0.733 -0.233,-1.933 -0.318,-2.667 -0.085,-0.733 -0.236,-1.971 -0.334,-2.75 -0.099,-0.779 -0.247,-1.979 -0.33,-2.666 C 74.92,44.979 74.773,43.76 74.676,42.958 74.579,42.156 74.421,40.844 74.324,40.042 74.227,39.24 74.083,38.021 74.003,37.333 73.841,35.927 73.588,35.096 73.445,35.5 m 0.556,4.083 c 0.104,0.917 0.258,2.23 0.343,2.917 0.084,0.688 0.418,3.462 0.741,6.167 0.611,5.103 1.185,9.87 1.346,11.166 0.051,0.413 0.133,0.919 0.182,1.125 l 0.09,0.375 h -3.037 -3.038 l 0.101,-0.875 c 0.055,-0.481 0.364,-3.2 0.687,-6.041 0.751,-6.608 0.899,-7.889 1.085,-9.417 0.084,-0.687 0.234,-2 0.333,-2.917 0.099,-0.916 0.252,-2.125 0.34,-2.686 0.088,-0.56 0.159,-1.285 0.159,-1.611 0,-2.041 0.335,-1.141 0.668,1.797"
           stroke="none"
           fill="#fff"
           fill-rule="evenodd" />
        <path
           id="path3"
           d="m 199.833,49.833 c 0,28.556 0.056,43 0.167,43 0.111,0 0.167,-14.444 0.167,-43 0,-28.555 -0.056,-43 -0.167,-43 -0.111,0 -0.167,14.445 -0.167,43 M 210.167,9.5 v 2.667 H 301.5 392.833 V 9.5 6.833 H 301.5 210.167 V 9.5 m 7.333,7.167 c 0,0.092 -0.444,0.166 -1,0.166 -0.556,0 -1,0.074 -1,0.167 0,0.092 -0.225,0.167 -0.5,0.167 -0.275,0 -0.5,0.075 -0.5,0.166 0,0.092 -0.133,0.167 -0.297,0.167 -0.163,0 -0.404,0.15 -0.536,0.333 -0.132,0.184 -0.339,0.334 -0.458,0.334 -0.304,0 -1.709,1.435 -1.709,1.745 0,0.14 -0.075,0.255 -0.167,0.255 -0.091,0 -0.166,0.15 -0.166,0.333 0,0.183 -0.075,0.333 -0.167,0.333 -0.092,0 -0.167,0.225 -0.167,0.5 0,0.275 -0.075,0.5 -0.166,0.5 -0.093,0 -0.167,0.445 -0.167,1 0,0.556 -0.074,1 -0.167,1 -0.11,0 -0.166,8.945 -0.166,26.5 0,17.556 0.056,26.5 0.166,26.5 0.092,0 0.167,0.375 0.167,0.834 0,0.458 0.075,0.833 0.167,0.833 0.091,0 0.166,0.225 0.166,0.5 0,0.275 0.075,0.5 0.167,0.5 0.092,0 0.167,0.133 0.167,0.297 0,0.163 0.15,0.404 0.333,0.536 0.183,0.132 0.333,0.34 0.333,0.461 0,0.287 0.753,1.039 1.039,1.039 0.122,0 0.329,0.15 0.461,0.334 0.132,0.183 0.374,0.333 0.537,0.333 0.163,0 0.297,0.075 0.297,0.167 0,0.091 0.225,0.166 0.5,0.166 0.275,0 0.5,0.075 0.5,0.167 0,0.093 0.444,0.167 1,0.167 0.555,0 1,0.074 1,0.166 0,0.109 2.555,0.167 7.333,0.167 4.778,0 7.333,-0.058 7.333,-0.167 0,-0.091 0.375,-0.166 0.834,-0.166 0.458,0 0.833,-0.075 0.833,-0.167 0,-0.092 0.225,-0.167 0.5,-0.167 0.275,0 0.5,-0.075 0.5,-0.166 0,-0.092 0.15,-0.167 0.333,-0.167 0.184,0 0.334,-0.075 0.334,-0.167 0,-0.091 0.114,-0.166 0.253,-0.166 0.33,0 2.08,-1.75 2.08,-2.08 0,-0.14 0.075,-0.254 0.167,-0.254 0.091,0 0.166,-0.225 0.166,-0.5 0,-0.275 0.075,-0.5 0.167,-0.5 0.092,0 0.167,-0.3 0.167,-0.666 0,-0.367 0.075,-0.667 0.166,-0.667 0.101,0 0.167,-0.722 0.167,-1.833 0,-1.111 0.066,-1.834 0.167,-1.834 0.108,0 0.166,-2.666 0.166,-7.666 0,-7.556 -0.004,-7.667 -0.333,-7.667 -0.183,0 -0.333,-0.075 -0.333,-0.167 0,-0.291 -11.803,-0.221 -12.096,0.072 -0.198,0.198 -0.238,1.339 -0.238,6.833 0,4.286 -0.058,6.595 -0.166,6.595 -0.092,0 -0.167,0.193 -0.167,0.429 0,0.94 -1.177,1.243 -1.924,0.496 l -0.409,-0.41 V 50.091 c 0,-14.727 0.056,-22.258 0.166,-22.258 0.092,0 0.167,-0.118 0.167,-0.262 0,-0.37 0.413,-0.738 0.829,-0.738 0.485,0 1.171,0.728 1.171,1.243 0,0.233 0.075,0.424 0.167,0.424 0.108,0 0.166,2.333 0.166,6.667 v 6.666 h 6.5 6.5 V 33 c 0,-5.778 -0.057,-8.833 -0.166,-8.833 -0.093,0 -0.167,-0.445 -0.167,-1 0,-0.556 -0.074,-1 -0.167,-1 -0.091,0 -0.166,-0.225 -0.166,-0.5 0,-0.275 -0.075,-0.5 -0.167,-0.5 -0.092,0 -0.167,-0.209 -0.167,-0.464 0,-0.272 -0.137,-0.562 -0.333,-0.703 -0.183,-0.132 -0.333,-0.339 -0.333,-0.459 0,-0.284 -1.09,-1.374 -1.375,-1.374 -0.12,0 -0.327,-0.15 -0.459,-0.334 -0.132,-0.183 -0.373,-0.333 -0.536,-0.333 -0.164,0 -0.297,-0.075 -0.297,-0.167 0,-0.091 -0.3,-0.166 -0.667,-0.166 -0.366,0 -0.666,-0.075 -0.666,-0.167 0,-0.099 -0.611,-0.167 -1.5,-0.167 -0.889,0 -1.5,-0.068 -1.5,-0.166 0,-0.109 -2.223,-0.167 -6.334,-0.167 -4.111,0 -6.333,0.058 -6.333,0.167 m 122,0 c 0,0.092 -0.444,0.166 -1,0.166 -0.556,0 -1,0.074 -1,0.167 0,0.092 -0.225,0.167 -0.5,0.167 -0.275,0 -0.5,0.075 -0.5,0.166 0,0.092 -0.133,0.167 -0.297,0.167 -0.163,0 -0.404,0.15 -0.536,0.333 -0.132,0.184 -0.339,0.334 -0.458,0.334 -0.304,0 -1.709,1.435 -1.709,1.745 0,0.14 -0.075,0.255 -0.167,0.255 -0.091,0 -0.166,0.15 -0.166,0.333 0,0.183 -0.075,0.333 -0.167,0.333 -0.092,0 -0.167,0.225 -0.167,0.5 0,0.275 -0.075,0.5 -0.166,0.5 -0.093,0 -0.167,0.445 -0.167,1 0,0.556 -0.074,1 -0.167,1 -0.11,0 -0.166,8.945 -0.166,26.5 0,17.556 0.056,26.5 0.166,26.5 0.092,0 0.167,0.375 0.167,0.834 0,0.458 0.075,0.833 0.167,0.833 0.091,0 0.166,0.225 0.166,0.5 0,0.275 0.075,0.5 0.167,0.5 0.092,0 0.167,0.133 0.167,0.297 0,0.163 0.15,0.404 0.333,0.536 0.183,0.132 0.333,0.339 0.333,0.459 0,0.304 1.1,1.375 1.411,1.375 0.141,0 0.256,0.075 0.256,0.166 0,0.092 0.15,0.167 0.333,0.167 0.184,0 0.334,0.075 0.334,0.167 0,0.091 0.225,0.166 0.5,0.166 0.275,0 0.5,0.075 0.5,0.167 0,0.093 0.444,0.167 1,0.167 0.555,0 1,0.074 1,0.166 0,0.109 2.555,0.167 7.333,0.167 4.778,0 7.333,-0.058 7.333,-0.167 0,-0.091 0.375,-0.166 0.834,-0.166 0.458,0 0.833,-0.075 0.833,-0.167 0,-0.092 0.225,-0.167 0.5,-0.167 0.275,0 0.5,-0.075 0.5,-0.166 0,-0.092 0.15,-0.167 0.333,-0.167 0.184,0 0.334,-0.075 0.334,-0.167 0,-0.091 0.114,-0.166 0.253,-0.166 0.33,0 2.08,-1.75 2.08,-2.08 0,-0.14 0.075,-0.254 0.167,-0.254 0.091,0 0.166,-0.225 0.166,-0.5 0,-0.275 0.075,-0.5 0.167,-0.5 0.092,0 0.167,-0.3 0.167,-0.666 0,-0.367 0.075,-0.667 0.166,-0.667 0.101,0 0.167,-0.722 0.167,-1.833 0,-1.111 0.066,-1.834 0.167,-1.834 0.108,0 0.166,-2.722 0.166,-7.833 V 58.167 H 357 c -2.444,0 -3.833,0.06 -3.833,0.166 0,0.092 -0.15,0.167 -0.334,0.167 -0.183,0 -0.333,-0.075 -0.333,-0.167 0,-0.282 -4.142,-0.215 -4.429,0.072 -0.198,0.198 -0.238,1.339 -0.238,6.833 0,4.286 -0.058,6.595 -0.166,6.595 -0.092,0 -0.167,0.193 -0.167,0.429 0,0.94 -1.177,1.243 -1.924,0.496 l -0.409,-0.41 V 50.091 c 0,-14.727 0.056,-22.258 0.166,-22.258 0.092,0 0.167,-0.15 0.167,-0.333 0,-0.222 0.111,-0.333 0.333,-0.333 0.184,0 0.334,-0.075 0.334,-0.167 0,-0.306 0.51,-0.172 0.924,0.242 0.225,0.225 0.409,0.6 0.409,0.834 0,0.233 0.075,0.424 0.167,0.424 0.108,0 0.166,2.333 0.166,6.667 v 6.666 h 6.5 6.5 v -8.666 c 0,-5.667 -0.057,-8.667 -0.166,-8.667 -0.096,0 -0.167,-0.5 -0.167,-1.167 0,-0.666 -0.071,-1.166 -0.167,-1.166 -0.091,0 -0.166,-0.225 -0.166,-0.5 0,-0.275 -0.075,-0.5 -0.167,-0.5 -0.092,0 -0.167,-0.209 -0.167,-0.464 0,-0.272 -0.137,-0.562 -0.333,-0.703 -0.183,-0.132 -0.333,-0.338 -0.333,-0.458 0,-0.303 -1.436,-1.709 -1.746,-1.709 -0.14,0 -0.254,-0.075 -0.254,-0.166 0,-0.092 -0.15,-0.167 -0.334,-0.167 -0.183,0 -0.333,-0.075 -0.333,-0.167 0,-0.091 -0.3,-0.166 -0.667,-0.166 -0.366,0 -0.666,-0.075 -0.666,-0.167 0,-0.099 -0.611,-0.167 -1.5,-0.167 -0.889,0 -1.5,-0.068 -1.5,-0.166 0,-0.109 -2.223,-0.167 -6.334,-0.167 -4.111,0 -6.333,0.058 -6.333,0.167 m 33.333,0 c 0,0.097 -0.555,0.166 -1.333,0.166 -0.778,0 -1.333,0.07 -1.333,0.167 0,0.092 -0.3,0.167 -0.667,0.167 -0.367,0 -0.667,0.075 -0.667,0.166 0,0.092 -0.225,0.167 -0.5,0.167 -0.275,0 -0.5,0.075 -0.5,0.167 0,0.091 -0.133,0.166 -0.296,0.166 -0.163,0 -0.405,0.15 -0.537,0.334 -0.132,0.183 -0.342,0.333 -0.465,0.333 -0.29,0 -0.702,0.411 -0.702,0.701 0,0.124 -0.15,0.334 -0.333,0.466 -0.183,0.132 -0.333,0.373 -0.333,0.536 0,0.164 -0.075,0.297 -0.167,0.297 -0.092,0 -0.167,0.225 -0.167,0.5 0,0.275 -0.075,0.5 -0.166,0.5 -0.092,0 -0.167,0.3 -0.167,0.667 0,0.366 -0.075,0.666 -0.167,0.666 -0.109,0 -0.166,3.167 -0.166,9.167 0,6 0.057,9.167 0.166,9.167 0.092,0 0.167,0.375 0.167,0.833 0,0.458 0.075,0.833 0.167,0.833 0.091,0 0.166,0.3 0.166,0.667 0,0.367 0.075,0.667 0.167,0.667 0.092,0 0.167,0.225 0.167,0.5 0,0.275 0.075,0.5 0.166,0.5 0.092,0 0.167,0.15 0.167,0.333 0,0.183 0.075,0.333 0.167,0.333 0.091,0 0.166,0.15 0.166,0.334 0,0.183 0.075,0.333 0.167,0.333 0.092,0 0.167,0.15 0.167,0.333 0,0.184 0.075,0.334 0.166,0.334 0.092,0 0.167,0.12 0.167,0.266 0,0.147 0.225,0.477 0.5,0.734 0.275,0.257 0.5,0.553 0.5,0.657 0,0.248 0.761,1.009 1.009,1.009 0.105,0 0.401,0.225 0.658,0.5 0.257,0.275 0.587,0.5 0.733,0.5 0.147,0 0.267,0.075 0.267,0.167 0,0.092 0.133,0.167 0.296,0.167 0.163,0 0.405,0.15 0.537,0.333 0.132,0.183 0.374,0.333 0.537,0.333 0.163,0 0.296,0.075 0.296,0.167 0,0.092 0.15,0.167 0.334,0.167 0.183,0 0.333,0.075 0.333,0.166 0,0.092 0.15,0.167 0.333,0.167 0.184,0 0.334,0.075 0.334,0.167 0,0.091 0.15,0.166 0.333,0.166 0.183,0 0.333,0.075 0.333,0.167 0,0.092 0.134,0.167 0.297,0.167 0.163,0 0.405,0.15 0.537,0.333 0.132,0.183 0.373,0.333 0.536,0.333 0.164,0 0.297,0.075 0.297,0.167 0,0.092 0.15,0.167 0.333,0.167 0.184,0 0.334,0.075 0.334,0.166 0,0.092 0.133,0.167 0.296,0.167 0.163,0 0.405,0.15 0.537,0.333 0.132,0.184 0.374,0.334 0.537,0.334 0.173,0 0.296,0.123 0.296,0.296 0,0.163 0.15,0.405 0.334,0.537 0.183,0.132 0.333,0.374 0.333,0.537 0,0.163 0.075,0.296 0.167,0.296 0.091,0 0.166,0.225 0.166,0.5 0,0.275 0.075,0.5 0.167,0.5 0.092,0 0.167,0.3 0.167,0.667 0,0.367 0.075,0.667 0.166,0.667 0.099,0 0.167,0.611 0.167,1.5 0,0.889 0.068,1.5 0.167,1.5 0.107,0 0.166,1.666 0.166,4.666 0,3 -0.059,4.667 -0.166,4.667 -0.092,0 -0.167,0.225 -0.167,0.5 0,0.275 -0.075,0.5 -0.167,0.5 -0.091,0 -0.166,0.15 -0.166,0.333 0,0.511 -1.055,0.461 -1.591,-0.075 -0.383,-0.383 -0.409,-0.523 -0.409,-2.167 0,-1.061 -0.066,-1.758 -0.167,-1.758 -0.095,0 -0.167,-0.5 -0.167,-1.166 0,-0.667 0.072,-1.167 0.167,-1.167 0.288,0 0.22,-7.804 -0.071,-8.095 -0.354,-0.354 -12.17,-0.354 -12.524,0 -0.294,0.294 -0.364,18.762 -0.072,18.762 0.092,0 0.167,0.3 0.167,0.666 0,0.367 0.075,0.667 0.167,0.667 0.091,0 0.166,0.225 0.166,0.5 0,0.275 0.075,0.5 0.167,0.5 0.092,0 0.167,0.114 0.167,0.253 0,0.329 2.418,2.747 2.747,2.747 0.139,0 0.253,0.075 0.253,0.167 0,0.091 0.225,0.166 0.5,0.166 0.275,0 0.5,0.075 0.5,0.167 0,0.092 0.3,0.167 0.666,0.167 0.367,0 0.667,0.075 0.667,0.166 0,0.109 2.667,0.167 7.667,0.167 5,0 7.666,-0.058 7.666,-0.167 0,-0.091 0.375,-0.166 0.834,-0.166 0.458,0 0.833,-0.075 0.833,-0.167 0,-0.092 0.225,-0.167 0.5,-0.167 0.275,0 0.5,-0.075 0.5,-0.166 0,-0.092 0.15,-0.167 0.333,-0.167 0.184,0 0.334,-0.075 0.334,-0.167 0,-0.091 0.114,-0.166 0.253,-0.166 0.33,0 2.08,-1.75 2.08,-2.08 0,-0.14 0.075,-0.254 0.167,-0.254 0.091,0 0.166,-0.225 0.166,-0.5 0,-0.275 0.075,-0.5 0.167,-0.5 0.092,0 0.167,-0.3 0.167,-0.666 0,-0.367 0.075,-0.667 0.166,-0.667 0.099,0 0.167,-0.611 0.167,-1.5 0,-0.889 0.068,-1.5 0.167,-1.5 0.109,0 0.166,-2.944 0.166,-8.5 0,-5.556 -0.057,-8.5 -0.166,-8.5 -0.101,0 -0.167,-0.722 -0.167,-1.833 0,-1.111 -0.066,-1.834 -0.167,-1.834 -0.091,0 -0.166,-0.375 -0.166,-0.833 0,-0.458 -0.075,-0.833 -0.167,-0.833 -0.092,0 -0.167,-0.3 -0.167,-0.667 0,-0.367 -0.075,-0.667 -0.166,-0.667 -0.092,0 -0.167,-0.225 -0.167,-0.5 0,-0.275 -0.075,-0.5 -0.167,-0.5 -0.091,0 -0.166,-0.225 -0.166,-0.5 0,-0.275 -0.075,-0.5 -0.167,-0.5 -0.092,0 -0.167,-0.15 -0.167,-0.333 0,-0.183 -0.075,-0.333 -0.166,-0.333 -0.092,0 -0.167,-0.15 -0.167,-0.334 0,-0.183 -0.075,-0.333 -0.167,-0.333 -0.091,0 -0.166,-0.133 -0.166,-0.297 0,-0.163 -0.15,-0.404 -0.334,-0.536 -0.183,-0.132 -0.333,-0.338 -0.333,-0.456 0,-0.281 -2.763,-3.044 -3.044,-3.044 -0.119,0 -0.324,-0.15 -0.456,-0.334 -0.132,-0.183 -0.374,-0.333 -0.537,-0.333 -0.163,0 -0.296,-0.075 -0.296,-0.167 0,-0.091 -0.15,-0.166 -0.334,-0.166 -0.183,0 -0.333,-0.075 -0.333,-0.167 0,-0.092 -0.133,-0.167 -0.297,-0.167 -0.163,0 -0.404,-0.15 -0.536,-0.333 -0.132,-0.183 -0.374,-0.333 -0.537,-0.333 -0.163,0 -0.297,-0.075 -0.297,-0.167 0,-0.092 -0.15,-0.167 -0.333,-0.167 -0.183,0 -0.333,-0.075 -0.333,-0.166 0,-0.092 -0.134,-0.167 -0.297,-0.167 -0.163,0 -0.405,-0.15 -0.537,-0.333 -0.132,-0.184 -0.373,-0.334 -0.536,-0.334 -0.164,0 -0.297,-0.075 -0.297,-0.166 0,-0.092 -0.15,-0.167 -0.333,-0.167 -0.184,0 -0.334,-0.075 -0.334,-0.167 0,-0.091 -0.114,-0.166 -0.254,-0.166 -0.331,0 -1.746,-1.415 -1.746,-1.746 0,-0.14 -0.075,-0.254 -0.166,-0.254 -0.092,0 -0.167,-0.225 -0.167,-0.5 0,-0.275 -0.075,-0.5 -0.167,-0.5 -0.106,0 -0.166,-1.5 -0.166,-4.167 0,-2.667 0.06,-4.167 0.166,-4.167 0.092,0 0.167,-0.15 0.167,-0.333 0,-0.222 0.111,-0.333 0.333,-0.333 0.184,0 0.334,-0.075 0.334,-0.167 0,-0.248 0.488,-0.202 0.762,0.071 0.131,0.131 0.238,0.356 0.238,0.5 0,0.144 0.075,0.262 0.166,0.262 0.092,0 0.167,0.3 0.167,0.667 0,0.367 0.075,0.667 0.167,0.667 0.106,0 0.166,1.5 0.166,4.166 V 37.5 h 6.5 6.5 v -5.833 c 0,-3.778 -0.058,-5.834 -0.166,-5.834 -0.099,0 -0.167,-0.611 -0.167,-1.5 0,-0.889 -0.068,-1.5 -0.167,-1.5 -0.091,0 -0.166,-0.3 -0.166,-0.666 0,-0.367 -0.075,-0.667 -0.167,-0.667 -0.092,0 -0.167,-0.225 -0.167,-0.5 0,-0.275 -0.075,-0.5 -0.166,-0.5 -0.092,0 -0.167,-0.15 -0.167,-0.333 0,-0.184 -0.075,-0.334 -0.167,-0.334 -0.091,0 -0.166,-0.115 -0.166,-0.255 0,-0.332 -1.08,-1.411 -1.411,-1.411 -0.141,0 -0.256,-0.075 -0.256,-0.167 0,-0.092 -0.15,-0.167 -0.333,-0.167 -0.184,0 -0.334,-0.075 -0.334,-0.166 0,-0.092 -0.15,-0.167 -0.333,-0.167 -0.183,0 -0.333,-0.075 -0.333,-0.167 0,-0.091 -0.225,-0.166 -0.5,-0.166 -0.275,0 -0.5,-0.075 -0.5,-0.167 0,-0.097 -0.556,-0.167 -1.334,-0.167 -0.777,0 -1.333,-0.069 -1.333,-0.166 0,-0.108 -2.056,-0.167 -5.833,-0.167 -3.778,0 -5.834,0.059 -5.834,0.167 m -124,0.333 c 0,0.092 -0.375,0.167 -0.833,0.167 -0.458,0 -0.833,0.075 -0.833,0.166 0,0.092 -0.225,0.167 -0.5,0.167 -0.275,0 -0.5,0.075 -0.5,0.167 0,0.091 -0.15,0.166 -0.334,0.166 -0.183,0 -0.333,0.075 -0.333,0.167 0,0.092 -0.114,0.167 -0.254,0.167 -0.331,0 -1.746,1.415 -1.746,1.745 0,0.14 -0.075,0.255 -0.167,0.255 -0.091,0 -0.166,0.15 -0.166,0.333 0,0.183 -0.075,0.333 -0.167,0.333 -0.092,0 -0.167,0.225 -0.167,0.5 0,0.275 -0.075,0.5 -0.166,0.5 -0.095,0 -0.167,0.497 -0.167,1.157 0,0.636 -0.075,1.203 -0.167,1.26 -0.11,0.068 -0.166,8.863 -0.166,25.843 0,17.049 0.056,25.74 0.166,25.74 0.093,0 0.167,0.445 0.167,1 0,0.556 0.074,1 0.167,1 0.091,0 0.166,0.225 0.166,0.5 0,0.275 0.075,0.5 0.167,0.5 0.092,0 0.167,0.15 0.167,0.334 0,0.183 0.075,0.333 0.166,0.333 0.092,0 0.167,0.15 0.167,0.333 0,0.184 0.075,0.334 0.167,0.334 0.091,0 0.166,0.115 0.166,0.255 0,0.312 1.071,1.411 1.375,1.411 0.12,0 0.327,0.15 0.459,0.334 0.141,0.195 0.431,0.333 0.703,0.333 0.255,0 0.463,0.075 0.463,0.167 0,0.091 0.225,0.166 0.5,0.166 0.275,0 0.5,0.075 0.5,0.167 0,0.093 0.445,0.167 1,0.167 0.556,0 1,0.074 1,0.166 0,0.109 2.278,0.167 6.5,0.167 4.223,0 6.5,-0.058 6.5,-0.167 0,-0.092 0.445,-0.166 1,-0.166 0.556,0 1,-0.074 1,-0.167 0,-0.092 0.225,-0.167 0.5,-0.167 0.275,0 0.5,-0.075 0.5,-0.166 0,-0.092 0.209,-0.167 0.464,-0.167 0.272,0 0.562,-0.138 0.703,-0.333 0.132,-0.184 0.317,-0.336 0.412,-0.339 0.268,-0.008 1.088,-0.787 1.088,-1.033 0,-0.122 0.15,-0.33 0.333,-0.462 0.184,-0.132 0.334,-0.373 0.334,-0.536 0,-0.164 0.075,-0.297 0.166,-0.297 0.092,0 0.167,-0.15 0.167,-0.333 0,-0.184 0.075,-0.334 0.167,-0.334 0.091,0 0.166,-0.22 0.166,-0.49 0,-0.269 0.075,-0.536 0.167,-0.593 0.092,-0.057 0.167,-0.807 0.167,-1.677 0,-0.937 0.067,-1.573 0.166,-1.573 0.111,0 0.167,-8.278 0.167,-24.5 0,-16.222 -0.056,-24.5 -0.167,-24.5 -0.098,0 -0.166,-0.611 -0.166,-1.5 0,-0.889 -0.068,-1.5 -0.167,-1.5 -0.092,0 -0.167,-0.225 -0.167,-0.5 0,-0.275 -0.075,-0.5 -0.166,-0.5 -0.092,0 -0.167,-0.208 -0.167,-0.463 0,-0.272 -0.138,-0.563 -0.333,-0.704 -0.184,-0.132 -0.334,-0.338 -0.334,-0.458 0,-0.283 -1.425,-1.708 -1.708,-1.708 -0.12,0 -0.326,-0.15 -0.458,-0.334 -0.141,-0.195 -0.432,-0.333 -0.704,-0.333 -0.255,0 -0.463,-0.075 -0.463,-0.167 0,-0.091 -0.3,-0.166 -0.667,-0.166 -0.366,0 -0.666,-0.075 -0.666,-0.167 0,-0.109 -2.667,-0.167 -7.667,-0.167 -5,0 -7.667,0.058 -7.667,0.167 m 25,33.167 V 83.5 h 5.834 5.833 v -13 c 0,-8.556 -0.057,-13 -0.167,-13 -0.108,0 -0.166,-2.111 -0.166,-6 0,-3.889 -0.059,-6 -0.167,-6 -0.106,0 -0.167,-1.333 -0.167,-3.667 0,-2.333 0.061,-3.666 0.167,-3.666 0.105,0 0.167,1.055 0.167,2.833 0,1.778 0.062,2.833 0.166,2.833 0.106,0 0.167,1.223 0.167,3.334 0,2.111 0.061,3.333 0.167,3.333 0.104,0 0.166,0.969 0.166,2.573 0,1.536 0.068,2.616 0.167,2.677 0.097,0.06 0.167,1.002 0.167,2.26 0,1.327 0.064,2.157 0.166,2.157 0.1,0 0.167,0.666 0.167,1.666 0,1 0.067,1.667 0.167,1.667 0.097,0 0.166,0.556 0.166,1.333 0,0.778 0.07,1.334 0.167,1.334 0.094,0 0.167,0.469 0.167,1.073 0,0.591 0.075,1.12 0.166,1.177 0.092,0.056 0.167,0.581 0.167,1.166 0,0.585 0.075,1.11 0.167,1.167 0.091,0.057 0.166,0.657 0.166,1.333 0,0.677 0.075,1.277 0.167,1.334 0.092,0.056 0.167,0.623 0.167,1.26 0,0.66 0.071,1.156 0.166,1.156 0.094,0 0.167,0.469 0.167,1.074 0,0.59 0.075,1.12 0.167,1.176 0.091,0.057 0.166,0.624 0.166,1.26 0,0.66 0.072,1.157 0.167,1.157 0.096,0 0.167,0.532 0.167,1.262 0,1.836 -0.206,1.753 4.199,1.7 l 3.717,-0.045 0.05,-0.959 c 0.028,-0.527 0.122,-0.958 0.209,-0.958 0.087,0 0.158,-0.521 0.158,-1.157 0,-0.636 0.075,-1.203 0.167,-1.26 0.091,-0.056 0.166,-0.581 0.166,-1.166 0,-0.585 0.075,-1.11 0.167,-1.167 0.092,-0.057 0.167,-0.586 0.167,-1.177 0,-0.604 0.072,-1.073 0.166,-1.073 0.098,0 0.167,-0.556 0.167,-1.333 0,-0.778 0.069,-1.334 0.167,-1.334 0.095,0 0.166,-0.5 0.166,-1.166 0,-0.667 0.072,-1.167 0.167,-1.167 0.095,0 0.167,-0.5 0.167,-1.167 0,-0.666 0.071,-1.166 0.166,-1.166 0.095,0 0.167,-0.497 0.167,-1.157 0,-0.636 0.075,-1.203 0.167,-1.26 0.091,-0.057 0.166,-0.736 0.166,-1.51 0,-0.827 0.069,-1.407 0.167,-1.407 0.102,0 0.167,-0.777 0.167,-2 0,-1.222 0.064,-2 0.166,-2 0.104,0 0.167,-0.941 0.167,-2.49 0,-1.48 0.068,-2.532 0.167,-2.593 0.1,-0.062 0.166,-1.196 0.166,-2.843 0,-1.716 0.063,-2.74 0.167,-2.74 0.107,0 0.167,-1.611 0.167,-4.5 0,-4.389 0.008,-4.5 0.333,-4.5 0.278,0 0.333,0.111 0.333,0.666 0,0.367 -0.075,0.667 -0.166,0.667 -0.109,0 -0.167,2.667 -0.167,7.667 0,5 -0.058,7.666 -0.167,7.666 -0.105,0 -0.166,1.167 -0.166,3.167 0,2 -0.062,3.167 -0.167,3.167 -0.109,0 -0.167,3.833 -0.167,11.166 V 83.5 h 5.834 5.833 V 50.167 16.833 h -8.333 -8.334 v 0.657 c 0,0.361 -0.075,0.703 -0.166,0.76 -0.092,0.057 -0.167,0.732 -0.167,1.5 0,0.768 -0.075,1.443 -0.167,1.5 -0.092,0.057 -0.166,0.804 -0.166,1.667 0,0.862 -0.075,1.61 -0.167,1.666 -0.092,0.057 -0.167,0.732 -0.167,1.5 0,0.769 -0.075,1.444 -0.166,1.5 -0.092,0.057 -0.167,0.804 -0.167,1.667 0,0.863 -0.075,1.61 -0.167,1.667 -0.093,0.058 -0.166,0.859 -0.166,1.833 0,0.974 -0.073,1.775 -0.167,1.833 -0.099,0.061 -0.167,1.085 -0.167,2.51 0,1.494 -0.063,2.407 -0.166,2.407 -0.109,0 -0.167,2.663 -0.167,7.657 0,4.925 -0.059,7.693 -0.167,7.76 -0.107,0.066 -0.166,-0.551 -0.166,-1.731 0,-1.042 -0.072,-1.877 -0.167,-1.936 -0.106,-0.066 -0.167,-2.248 -0.167,-6 0,-3.752 -0.06,-5.934 -0.166,-6 -0.102,-0.063 -0.167,-1.304 -0.167,-3.167 0,-1.862 -0.065,-3.104 -0.167,-3.166 -0.092,-0.057 -0.166,-0.804 -0.166,-1.667 0,-0.863 -0.075,-1.61 -0.167,-1.667 -0.093,-0.057 -0.167,-0.835 -0.167,-1.76 0,-0.993 -0.066,-1.656 -0.166,-1.656 -0.099,0 -0.167,-0.611 -0.167,-1.5 0,-0.889 -0.068,-1.5 -0.167,-1.5 -0.098,0 -0.166,-0.611 -0.166,-1.5 0,-0.889 -0.068,-1.5 -0.167,-1.5 -0.098,0 -0.167,-0.588 -0.167,-1.429 0,-2.092 0.861,-1.905 -8.738,-1.905 h -8.262 v 33.334 m 42,0 V 83.5 h 6.5 6.5 V 50.167 16.833 h -6.5 -6.5 V 50.167 M 257.289,27.098 c 0.116,0.116 0.211,0.362 0.211,0.547 0,0.184 0.075,0.382 0.167,0.438 0.109,0.068 0.166,7.613 0.166,22.094 0,14.549 -0.056,21.99 -0.166,21.99 -0.092,0 -0.167,0.116 -0.167,0.257 0,0.405 -0.775,1.076 -1.242,1.076 -0.234,0 -0.425,-0.075 -0.425,-0.167 0,-0.091 -0.15,-0.166 -0.333,-0.166 -0.259,0 -0.333,-0.111 -0.333,-0.5 0,-0.275 -0.075,-0.5 -0.167,-0.5 -0.11,0 -0.167,-7.445 -0.167,-22 0,-14.556 0.057,-22 0.167,-22 0.092,0 0.167,-0.193 0.167,-0.429 0,-0.919 1.416,-1.346 2.122,-0.64 M 210.167,90.5 v 2.667 H 301.5 392.833 V 90.5 87.833 H 301.5 210.167 V 90.5"
           stroke="none"
           fill="#fff"
           fill-rule="evenodd" />
      </g>
    </g>
    <path
       id="path4"
       d=""
       stroke="none"
       fill="#fff"
       fill-rule="evenodd" />
  </g>
</svg>
